<mxfile host="app.diagrams.net" modified="2023-04-25T07:40:35.989Z" agent="Mozilla/5.0 (Windows NT 10.0; Win64; x64) AppleWebKit/537.36 (KHTML, like Gecko) Chrome/112.0.0.0 Safari/537.36 Edg/112.0.1722.58" etag="3DBFttloseRp0tLXWyrw" version="21.2.1" type="device">
  <diagram name="Страница 1" id="LfAVFmU5jC781aRs8l4f">
    <mxGraphModel dx="936" dy="565" grid="1" gridSize="10" guides="1" tooltips="1" connect="1" arrows="1" fold="1" page="1" pageScale="1" pageWidth="827" pageHeight="1169" math="0" shadow="0">
      <root>
        <mxCell id="0" />
        <mxCell id="1" parent="0" />
        <mxCell id="FoyQQF-ts86QolSbCVlo-2" style="edgeStyle=orthogonalEdgeStyle;rounded=0;orthogonalLoop=1;jettySize=auto;html=1;exitX=0.5;exitY=1;exitDx=0;exitDy=0;exitPerimeter=0;" edge="1" parent="1" source="FoyQQF-ts86QolSbCVlo-1">
          <mxGeometry relative="1" as="geometry">
            <mxPoint x="155" y="110" as="targetPoint" />
          </mxGeometry>
        </mxCell>
        <mxCell id="FoyQQF-ts86QolSbCVlo-1" value="Начало" style="strokeWidth=2;html=1;shape=mxgraph.flowchart.terminator;whiteSpace=wrap;" vertex="1" parent="1">
          <mxGeometry x="90" y="20" width="130" height="50" as="geometry" />
        </mxCell>
        <mxCell id="FoyQQF-ts86QolSbCVlo-4" style="edgeStyle=orthogonalEdgeStyle;rounded=0;orthogonalLoop=1;jettySize=auto;html=1;exitX=0.5;exitY=1;exitDx=0;exitDy=0;" edge="1" parent="1" source="FoyQQF-ts86QolSbCVlo-3">
          <mxGeometry relative="1" as="geometry">
            <mxPoint x="155" y="180" as="targetPoint" />
          </mxGeometry>
        </mxCell>
        <mxCell id="FoyQQF-ts86QolSbCVlo-3" value="Определить тип узла" style="rounded=0;whiteSpace=wrap;html=1;" vertex="1" parent="1">
          <mxGeometry x="90" y="110" width="130" height="40" as="geometry" />
        </mxCell>
        <mxCell id="FoyQQF-ts86QolSbCVlo-6" style="edgeStyle=orthogonalEdgeStyle;rounded=0;orthogonalLoop=1;jettySize=auto;html=1;exitX=1;exitY=0.5;exitDx=0;exitDy=0;" edge="1" parent="1" source="FoyQQF-ts86QolSbCVlo-5">
          <mxGeometry relative="1" as="geometry">
            <mxPoint x="340" y="250" as="targetPoint" />
          </mxGeometry>
        </mxCell>
        <mxCell id="FoyQQF-ts86QolSbCVlo-11" style="edgeStyle=orthogonalEdgeStyle;rounded=0;orthogonalLoop=1;jettySize=auto;html=1;exitX=0.5;exitY=1;exitDx=0;exitDy=0;" edge="1" parent="1" source="FoyQQF-ts86QolSbCVlo-5">
          <mxGeometry relative="1" as="geometry">
            <mxPoint x="155" y="470" as="targetPoint" />
          </mxGeometry>
        </mxCell>
        <mxCell id="FoyQQF-ts86QolSbCVlo-5" value="Define?" style="rhombus;whiteSpace=wrap;html=1;" vertex="1" parent="1">
          <mxGeometry x="90" y="180" width="130" height="60" as="geometry" />
        </mxCell>
        <mxCell id="FoyQQF-ts86QolSbCVlo-7" value="1" style="text;html=1;align=center;verticalAlign=middle;resizable=0;points=[];autosize=1;strokeColor=none;fillColor=none;" vertex="1" parent="1">
          <mxGeometry x="255" y="188" width="30" height="30" as="geometry" />
        </mxCell>
        <mxCell id="FoyQQF-ts86QolSbCVlo-9" style="edgeStyle=orthogonalEdgeStyle;rounded=0;orthogonalLoop=1;jettySize=auto;html=1;exitX=0.5;exitY=1;exitDx=0;exitDy=0;" edge="1" parent="1">
          <mxGeometry relative="1" as="geometry">
            <mxPoint x="342" y="340" as="targetPoint" />
            <mxPoint x="341.5" y="310" as="sourcePoint" />
          </mxGeometry>
        </mxCell>
        <mxCell id="FoyQQF-ts86QolSbCVlo-13" style="edgeStyle=orthogonalEdgeStyle;rounded=0;orthogonalLoop=1;jettySize=auto;html=1;exitX=0.5;exitY=1;exitDx=0;exitDy=0;" edge="1" parent="1" source="FoyQQF-ts86QolSbCVlo-10">
          <mxGeometry relative="1" as="geometry">
            <mxPoint x="160" y="420" as="targetPoint" />
            <Array as="points">
              <mxPoint x="342" y="420" />
            </Array>
          </mxGeometry>
        </mxCell>
        <mxCell id="FoyQQF-ts86QolSbCVlo-10" value="&lt;div style=&quot;&quot;&gt;Пеместить в таблицу имен&amp;nbsp;&lt;/div&gt;" style="rounded=0;whiteSpace=wrap;html=1;align=left;" vertex="1" parent="1">
          <mxGeometry x="269" y="340" width="145" height="60" as="geometry" />
        </mxCell>
        <mxCell id="FoyQQF-ts86QolSbCVlo-12" value="0" style="text;html=1;align=center;verticalAlign=middle;resizable=0;points=[];autosize=1;strokeColor=none;fillColor=none;" vertex="1" parent="1">
          <mxGeometry x="155" y="248" width="30" height="30" as="geometry" />
        </mxCell>
        <mxCell id="FoyQQF-ts86QolSbCVlo-15" style="edgeStyle=orthogonalEdgeStyle;rounded=0;orthogonalLoop=1;jettySize=auto;html=1;exitX=1;exitY=0.5;exitDx=0;exitDy=0;" edge="1" parent="1" source="FoyQQF-ts86QolSbCVlo-14">
          <mxGeometry relative="1" as="geometry">
            <mxPoint x="340" y="540" as="targetPoint" />
          </mxGeometry>
        </mxCell>
        <mxCell id="FoyQQF-ts86QolSbCVlo-20" style="edgeStyle=orthogonalEdgeStyle;rounded=0;orthogonalLoop=1;jettySize=auto;html=1;exitX=0.5;exitY=1;exitDx=0;exitDy=0;" edge="1" parent="1" source="FoyQQF-ts86QolSbCVlo-14">
          <mxGeometry relative="1" as="geometry">
            <mxPoint x="155" y="770" as="targetPoint" />
          </mxGeometry>
        </mxCell>
        <mxCell id="FoyQQF-ts86QolSbCVlo-14" value="Assgn?" style="rhombus;whiteSpace=wrap;html=1;" vertex="1" parent="1">
          <mxGeometry x="90" y="470" width="130" height="60" as="geometry" />
        </mxCell>
        <mxCell id="FoyQQF-ts86QolSbCVlo-16" value="&lt;div style=&quot;&quot;&gt;Получить имя перменной&lt;/div&gt;&lt;div style=&quot;&quot;&gt;и номер порта,&lt;/div&gt;&lt;div style=&quot;&quot;&gt;Записать их в дир&lt;/div&gt;" style="rounded=0;whiteSpace=wrap;html=1;align=left;" vertex="1" parent="1">
          <mxGeometry x="269" y="248" width="145" height="60" as="geometry" />
        </mxCell>
        <mxCell id="FoyQQF-ts86QolSbCVlo-19" style="edgeStyle=orthogonalEdgeStyle;rounded=0;orthogonalLoop=1;jettySize=auto;html=1;exitX=0.5;exitY=1;exitDx=0;exitDy=0;entryX=0.5;entryY=0;entryDx=0;entryDy=0;" edge="1" parent="1" source="FoyQQF-ts86QolSbCVlo-17" target="FoyQQF-ts86QolSbCVlo-18">
          <mxGeometry relative="1" as="geometry" />
        </mxCell>
        <mxCell id="FoyQQF-ts86QolSbCVlo-17" value="&lt;div style=&quot;&quot;&gt;Получить имя перменной&lt;/div&gt;&lt;div style=&quot;&quot;&gt;и номер регистра,&lt;/div&gt;&lt;div style=&quot;&quot;&gt;Записать их в дир&lt;/div&gt;" style="rounded=0;whiteSpace=wrap;html=1;align=left;" vertex="1" parent="1">
          <mxGeometry x="269" y="540" width="145" height="60" as="geometry" />
        </mxCell>
        <mxCell id="FoyQQF-ts86QolSbCVlo-21" style="edgeStyle=orthogonalEdgeStyle;rounded=0;orthogonalLoop=1;jettySize=auto;html=1;exitX=0.5;exitY=1;exitDx=0;exitDy=0;" edge="1" parent="1" source="FoyQQF-ts86QolSbCVlo-18">
          <mxGeometry relative="1" as="geometry">
            <mxPoint x="160" y="720" as="targetPoint" />
            <Array as="points">
              <mxPoint x="342" y="720" />
            </Array>
          </mxGeometry>
        </mxCell>
        <mxCell id="FoyQQF-ts86QolSbCVlo-18" value="&lt;div style=&quot;&quot;&gt;Пеместить в таблицу имен&amp;nbsp;&lt;/div&gt;" style="rounded=0;whiteSpace=wrap;html=1;align=left;" vertex="1" parent="1">
          <mxGeometry x="269" y="640" width="145" height="60" as="geometry" />
        </mxCell>
        <mxCell id="FoyQQF-ts86QolSbCVlo-22" value="1" style="text;html=1;align=center;verticalAlign=middle;resizable=0;points=[];autosize=1;strokeColor=none;fillColor=none;" vertex="1" parent="1">
          <mxGeometry x="245" y="468" width="30" height="30" as="geometry" />
        </mxCell>
        <mxCell id="FoyQQF-ts86QolSbCVlo-23" value="0" style="text;html=1;align=center;verticalAlign=middle;resizable=0;points=[];autosize=1;strokeColor=none;fillColor=none;" vertex="1" parent="1">
          <mxGeometry x="155" y="568" width="30" height="30" as="geometry" />
        </mxCell>
        <mxCell id="FoyQQF-ts86QolSbCVlo-25" style="edgeStyle=orthogonalEdgeStyle;rounded=0;orthogonalLoop=1;jettySize=auto;html=1;exitX=1;exitY=0.5;exitDx=0;exitDy=0;" edge="1" parent="1" source="FoyQQF-ts86QolSbCVlo-24">
          <mxGeometry relative="1" as="geometry">
            <mxPoint x="340" y="840" as="targetPoint" />
          </mxGeometry>
        </mxCell>
        <mxCell id="FoyQQF-ts86QolSbCVlo-40" style="edgeStyle=orthogonalEdgeStyle;rounded=0;orthogonalLoop=1;jettySize=auto;html=1;exitX=0.5;exitY=1;exitDx=0;exitDy=0;" edge="1" parent="1" source="FoyQQF-ts86QolSbCVlo-24">
          <mxGeometry relative="1" as="geometry">
            <mxPoint x="710" y="1080" as="targetPoint" />
            <Array as="points">
              <mxPoint x="155" y="1100" />
              <mxPoint x="690" y="1100" />
              <mxPoint x="690" y="1080" />
            </Array>
          </mxGeometry>
        </mxCell>
        <mxCell id="FoyQQF-ts86QolSbCVlo-24" value="Cond или &lt;br&gt;Parametr?&amp;nbsp;" style="rhombus;whiteSpace=wrap;html=1;" vertex="1" parent="1">
          <mxGeometry x="90" y="770" width="130" height="60" as="geometry" />
        </mxCell>
        <mxCell id="FoyQQF-ts86QolSbCVlo-26" value="1" style="text;html=1;align=center;verticalAlign=middle;resizable=0;points=[];autosize=1;strokeColor=none;fillColor=none;" vertex="1" parent="1">
          <mxGeometry x="255" y="778" width="30" height="30" as="geometry" />
        </mxCell>
        <mxCell id="FoyQQF-ts86QolSbCVlo-29" style="edgeStyle=orthogonalEdgeStyle;rounded=0;orthogonalLoop=1;jettySize=auto;html=1;exitX=0.5;exitY=1;exitDx=0;exitDy=0;" edge="1" parent="1" source="FoyQQF-ts86QolSbCVlo-28">
          <mxGeometry relative="1" as="geometry">
            <mxPoint x="340" y="900" as="targetPoint" />
          </mxGeometry>
        </mxCell>
        <mxCell id="FoyQQF-ts86QolSbCVlo-28" value="Определить тип узла" style="rounded=0;whiteSpace=wrap;html=1;" vertex="1" parent="1">
          <mxGeometry x="276.5" y="840" width="130" height="40" as="geometry" />
        </mxCell>
        <mxCell id="FoyQQF-ts86QolSbCVlo-31" style="edgeStyle=orthogonalEdgeStyle;rounded=0;orthogonalLoop=1;jettySize=auto;html=1;exitX=1;exitY=0.5;exitDx=0;exitDy=0;" edge="1" parent="1" source="FoyQQF-ts86QolSbCVlo-30">
          <mxGeometry relative="1" as="geometry">
            <mxPoint x="490" y="960" as="targetPoint" />
            <Array as="points">
              <mxPoint x="490" y="930" />
            </Array>
          </mxGeometry>
        </mxCell>
        <mxCell id="FoyQQF-ts86QolSbCVlo-39" style="edgeStyle=orthogonalEdgeStyle;rounded=0;orthogonalLoop=1;jettySize=auto;html=1;exitX=0.5;exitY=1;exitDx=0;exitDy=0;" edge="1" parent="1" source="FoyQQF-ts86QolSbCVlo-30">
          <mxGeometry relative="1" as="geometry">
            <mxPoint x="160" y="1080" as="targetPoint" />
            <Array as="points">
              <mxPoint x="340" y="1080" />
            </Array>
          </mxGeometry>
        </mxCell>
        <mxCell id="FoyQQF-ts86QolSbCVlo-30" value="ID?" style="rhombus;whiteSpace=wrap;html=1;" vertex="1" parent="1">
          <mxGeometry x="275" y="900" width="130" height="60" as="geometry" />
        </mxCell>
        <mxCell id="FoyQQF-ts86QolSbCVlo-32" value="1" style="text;html=1;align=center;verticalAlign=middle;resizable=0;points=[];autosize=1;strokeColor=none;fillColor=none;" vertex="1" parent="1">
          <mxGeometry x="425" y="908" width="30" height="30" as="geometry" />
        </mxCell>
        <mxCell id="FoyQQF-ts86QolSbCVlo-35" style="edgeStyle=orthogonalEdgeStyle;rounded=0;orthogonalLoop=1;jettySize=auto;html=1;exitX=0.5;exitY=1;exitDx=0;exitDy=0;" edge="1" parent="1" source="FoyQQF-ts86QolSbCVlo-34">
          <mxGeometry relative="1" as="geometry">
            <mxPoint x="490" y="1030" as="targetPoint" />
          </mxGeometry>
        </mxCell>
        <mxCell id="FoyQQF-ts86QolSbCVlo-34" value="Найти имя в таблице имен" style="rounded=0;whiteSpace=wrap;html=1;" vertex="1" parent="1">
          <mxGeometry x="425" y="960" width="130" height="40" as="geometry" />
        </mxCell>
        <mxCell id="FoyQQF-ts86QolSbCVlo-38" style="edgeStyle=orthogonalEdgeStyle;rounded=0;orthogonalLoop=1;jettySize=auto;html=1;exitX=0;exitY=0.5;exitDx=0;exitDy=0;" edge="1" parent="1" source="FoyQQF-ts86QolSbCVlo-37">
          <mxGeometry relative="1" as="geometry">
            <mxPoint x="340" y="1060" as="targetPoint" />
          </mxGeometry>
        </mxCell>
        <mxCell id="FoyQQF-ts86QolSbCVlo-42" style="edgeStyle=orthogonalEdgeStyle;rounded=0;orthogonalLoop=1;jettySize=auto;html=1;exitX=1;exitY=0.5;exitDx=0;exitDy=0;" edge="1" parent="1" source="FoyQQF-ts86QolSbCVlo-37">
          <mxGeometry relative="1" as="geometry">
            <mxPoint x="710" y="1010" as="targetPoint" />
            <Array as="points">
              <mxPoint x="600" y="1060" />
              <mxPoint x="600" y="970" />
              <mxPoint x="710" y="970" />
            </Array>
          </mxGeometry>
        </mxCell>
        <mxCell id="FoyQQF-ts86QolSbCVlo-37" value="Есть?" style="rhombus;whiteSpace=wrap;html=1;" vertex="1" parent="1">
          <mxGeometry x="425" y="1030" width="130" height="60" as="geometry" />
        </mxCell>
        <mxCell id="FoyQQF-ts86QolSbCVlo-41" value="1" style="text;html=1;align=center;verticalAlign=middle;resizable=0;points=[];autosize=1;strokeColor=none;fillColor=none;" vertex="1" parent="1">
          <mxGeometry x="365" y="1038" width="30" height="30" as="geometry" />
        </mxCell>
        <mxCell id="FoyQQF-ts86QolSbCVlo-44" value="0" style="text;html=1;align=center;verticalAlign=middle;resizable=0;points=[];autosize=1;strokeColor=none;fillColor=none;" vertex="1" parent="1">
          <mxGeometry x="555" y="1028" width="30" height="30" as="geometry" />
        </mxCell>
        <mxCell id="FoyQQF-ts86QolSbCVlo-46" style="edgeStyle=orthogonalEdgeStyle;rounded=0;orthogonalLoop=1;jettySize=auto;html=1;exitX=0.5;exitY=1;exitDx=0;exitDy=0;entryX=0.5;entryY=0;entryDx=0;entryDy=0;entryPerimeter=0;" edge="1" parent="1" source="FoyQQF-ts86QolSbCVlo-45" target="FoyQQF-ts86QolSbCVlo-47">
          <mxGeometry relative="1" as="geometry">
            <mxPoint x="715" y="1100" as="targetPoint" />
          </mxGeometry>
        </mxCell>
        <mxCell id="FoyQQF-ts86QolSbCVlo-45" value="Выдать ошибку" style="rounded=0;whiteSpace=wrap;html=1;" vertex="1" parent="1">
          <mxGeometry x="650" y="1010" width="130" height="40" as="geometry" />
        </mxCell>
        <mxCell id="FoyQQF-ts86QolSbCVlo-47" value="Конец" style="strokeWidth=2;html=1;shape=mxgraph.flowchart.terminator;whiteSpace=wrap;" vertex="1" parent="1">
          <mxGeometry x="650" y="1110" width="130" height="50" as="geometry" />
        </mxCell>
      </root>
    </mxGraphModel>
  </diagram>
</mxfile>
